# xmcd
#
# Track frame offsets:
#	150
#	12752
#	22744
#	37229
#	48362
#	61370
#	75471
#	89006
#	103001
#	115127
#	129042
#	140467
#	156741
#	171747
#	184894
#	197465
#	211166
#	225800
#
# Disc length: 3146 seconds
#
# Revision: 0
# Processed by: cddbd v1.4PL0 Copyright (c) Steve Scherf et al.
# Submitted via: EasyCDDAExtractor 4.6.9.1
#
DISCID=eb0c4812
DTITLE=George Strait - Strait Out of the Box - CD1
DYEAR=1995
DGENRE=Country
TTITLE0=I Just Can't Go On Dying Like This
TTITLE1=(That Don't Change) The Way I Feel
TTITLE2=I Don't Want To Talk It Over Anymore
TTITLE3=Unwound
TTITLE4=Blame It On Mexico
TTITLE5=Her Goodbye Hit Me In The Heart
TTITLE6=If You're Thinking You Want A Stranger (There's One At Home)
TTITLE7=Any Old Love Won't Do
TTITLE8=Fool Hearted Memory
TTITLE9=Marina Del Ray
TTITLE10=I Can't See Texas From Here
TTITLE11=Heartbroke
TTITLE12=What Would Your Memory Do
TTITLE13=Amarillo By Morning
TTITLE14=I Thought I Heard You Calling 
TTITLE15=A Fire I Can't Put Out
TTITLE16=You Look So Good In Love
TTITLE17=80 Proof Bottle Of Tear Stopper
EXTD=
EXTT0=
EXTT1=
EXTT2=
EXTT3=
EXTT4=
EXTT5=
EXTT6=
EXTT7=
EXTT8=
EXTT9=
EXTT10=
EXTT11=
EXTT12=
EXTT13=
EXTT14=
EXTT15=
EXTT16=
EXTT17=
PLAYORDER=
